<svg preserveAspectRatio="none" overflow="visible" style="display: block;" width="16" height="16" viewBox="0 0 16 16" fill="none" xmlns="http://www.w3.org/2000/svg">
<g id="Icon">
<g id="Vector">
<path d="M10.1667 13.3333V2.66667C10.1667 2.44565 10.0788 2.23375 9.92253 2.07747C9.76625 1.92119 9.55435 1.83333 9.33333 1.83333H6.66667C6.44565 1.83333 6.23375 1.92119 6.07747 2.07747C5.92119 2.23375 5.83333 2.44565 5.83333 2.66667V13.3333C5.83333 13.6095 5.60948 13.8333 5.33333 13.8333C5.05719 13.8333 4.83333 13.6095 4.83333 13.3333V2.66667C4.83333 2.18044 5.02663 1.71426 5.37044 1.37044C5.71426 1.02663 6.18044 0.833333 6.66667 0.833333H9.33333C9.81956 0.833333 10.2857 1.02663 10.6296 1.37044C10.9734 1.71426 11.1667 2.18044 11.1667 2.66667V13.3333C11.1667 13.6095 10.9428 13.8333 10.6667 13.8333C10.3905 13.8333 10.1667 13.6095 10.1667 13.3333Z" fill="#737373"/>
<path d="M14.1667 5.33333C14.1667 4.8731 13.7936 4.5 13.3333 4.5H2.66667C2.20643 4.5 1.83333 4.8731 1.83333 5.33333V12C1.83333 12.4602 2.20643 12.8333 2.66667 12.8333H13.3333C13.7936 12.8333 14.1667 12.4602 14.1667 12V5.33333ZM15.1667 12C15.1667 13.0125 14.3459 13.8333 13.3333 13.8333H2.66667C1.65414 13.8333 0.833333 13.0125 0.833333 12V5.33333C0.833333 4.32081 1.65414 3.5 2.66667 3.5H13.3333C14.3459 3.5 15.1667 4.32081 15.1667 5.33333V12Z" fill="#737373"/>
</g>
</g>
</svg>
